<svg xmlns="http://www.w3.org/2000/svg" viewBox="0 0 64 64">
  <rect width="64" height="64" rx="16" fill="#f7a8c8"/>
  <!-- Wave / spiral G — isotipo Girlas -->
  <path
    d="M32 14
       C22 14, 14 21, 14 30
       C14 36, 18 41, 24 43
       C24 43, 20 45, 20 50
       C20 50, 26 46, 32 46
       C42 46, 50 39, 50 30
       C50 21, 42 14, 32 14Z
       M32 40
       C25 40, 20 35.5, 20 30
       C20 24.5, 25 20, 32 20
       C39 20, 44 24.5, 44 30
       C44 35.5, 39 40, 32 40Z"
    fill="white"
  />
  <circle cx="32" cy="30" r="5" fill="#f7a8c8"/>
</svg>
